<svg id="Capa_1" data-name="Capa 1" xmlns="http://www.w3.org/2000/svg" viewBox="0 0 129.44 128.96"><path d="M85.77.59C76,3.83,72.44,9.12,69.9,24.29c-.77,4.8-2,10.13-2.46,11.85s-.86,3.45-1.06,4-1.06,3.1-2.33,5.78C59,56.24,51.21,62.38,27.87,74.09,15.45,80.29,13.27,81.7,9.1,85.8a27.89,27.89,0,0,0-7,9.52C0,100,0,108.36,0,108.67c0,.5.64,8.87,2.54,12.67C5,126.28,7.41,128,10.44,127a5.92,5.92,0,0,0,3-2.61c.7-1.71.91-2.33-.64-7.06-2.4-7.33-2.26-13.12.5-19,2.39-4.94,4.3-7.34,8.39-10C24.9,86.15,33.78,84,37.8,84c5.57.08,15,2.32,21.59,5.7C66.94,93.55,74.7,101,85.28,114.15,94.94,126.28,99.11,129,108,129c6.21,0,10.37-1.55,14.82-5.57a18.81,18.81,0,0,0,6.63-15.09c.07-5.72-1.13-8.82-4.94-13.34-5.36-6.41-14.6-8.11-25-4.65-4.87,1.62-6.63,1.9-10.93,1.62C76.11,91.09,67.79,82.34,67.79,70c0-7.13,1.62-11.15,6.49-16.44,4.3-4.58,8.25-7,20.45-12.27,7.69-3.32,12.13-6.77,15.17-11.85,1.76-3,2.43-8.09,2.45-9.19a19.06,19.06,0,0,0-2.59-10.14c-2.33-3.67-7.2-7.69-10.8-8.89C95.09-.12,88.81-.4,85.77.59Z"/></svg>