<svg width="500" height="500" viewBox="0 0 500 500" fill="none" xmlns="http://www.w3.org/2000/svg">
<path d="M134.661 334.634C170.727 313.051 218.135 323.709 240.548 358.439C262.962 393.17 251.892 438.821 215.826 460.404C179.759 481.987 132.351 471.329 109.938 436.599C87.5246 401.868 98.5938 356.217 134.661 334.634ZM302.557 36.6309C334.266 18.1007 398.095 25.2006 415.39 85.126C424.631 123.593 394.667 182.33 329.325 174.904C327.895 174.742 326.448 174.548 324.985 174.321L324.026 174.12C323.331 173.914 322.626 173.705 321.913 173.493C292.59 164.797 248.201 152.473 233.788 205.372C227.199 227.845 253.554 276.338 307.912 255.052C312.145 253.394 315.393 252.096 317.921 251.084C318.774 250.727 319.628 250.385 320.483 250.06C325.476 248.064 326.707 247.62 328.16 247.566C342.317 243.749 356.589 244.136 369.821 248.211C375.264 249.668 380.93 252.049 386.797 255.818C396.79 261.831 405.716 270.213 412.918 280.676C413.749 282.052 414.533 283.435 415.271 284.822C415.858 285.657 416.448 286.509 417.038 287.379C417.079 287.804 417.135 288.239 417.2 288.685C423.883 302.971 425.755 317.674 423.128 331.707C422.639 334.756 421.847 337.879 420.676 341.065C415.555 356.178 405.03 370.172 389.523 381.581C352.433 403.776 304.523 393.754 281.783 358.884C279.105 354.777 276.905 350.492 275.171 346.094C272.003 338.569 270.153 330.155 270.026 320.891C269.035 302.112 244.844 263.266 202.079 279.098C177.856 288.065 140.097 302.761 108.067 275.828C100.119 270.291 93.1097 263.192 87.5991 254.653C67.5896 221.866 75.9871 182.882 103.718 160.219C104.758 159.343 105.836 158.491 106.955 157.667L107.376 157.405C108.182 156.823 109.002 156.253 109.836 155.697C110.942 155.035 112.06 154.405 113.19 153.808L302.557 36.6309Z" fill="#272727"/>
</svg>
