<svg width="1423" height="476" viewBox="0 0 1423 476" fill="none" xmlns="http://www.w3.org/2000/svg">
<path d="M59.649 329.273C96.6527 306.146 145.292 317.565 168.288 354.78C191.283 391.994 179.927 440.911 142.924 464.038C105.92 487.165 57.2808 475.744 34.2851 438.529C11.2899 401.314 22.6456 352.399 59.649 329.273Z" fill="#FAFAFA"/>
<path fill-rule="evenodd" clip-rule="evenodd" d="M680.788 190.976C697.963 190.976 713.449 194.072 727.246 200.266C741.324 206.178 753.292 214.486 763.147 225.185C773.283 235.602 781.027 247.708 786.377 261.504C791.726 275.299 794.4 289.939 794.4 305.424C794.4 320.909 791.726 335.549 786.377 349.344C781.027 362.858 773.283 374.965 763.147 385.663C753.292 396.362 741.324 404.809 727.246 411.003C713.449 416.915 697.963 419.872 680.788 419.872C663.331 419.872 647.704 416.915 633.907 411.003C620.11 404.809 608.142 396.362 598.006 385.663C588.151 374.965 580.549 362.858 575.199 349.344C569.849 335.549 567.174 320.909 567.174 305.424C567.174 289.939 569.849 275.299 575.199 261.504C580.549 247.708 588.151 235.602 598.006 225.185C608.142 214.486 620.11 206.178 633.907 200.266C647.985 194.072 663.613 190.976 680.788 190.976ZM680.788 230.674C668.399 230.674 657.277 234.052 647.422 240.809C637.567 247.566 629.682 256.576 623.769 267.837C617.856 278.817 614.899 291.487 614.899 305.845C614.899 319.922 617.856 332.593 623.769 343.855C629.682 355.117 637.567 363.985 647.422 370.46C657.277 376.935 668.399 380.174 680.788 380.174C692.895 380.174 703.875 376.935 713.73 370.46C723.867 363.703 731.892 354.693 737.804 343.432C743.717 331.888 746.674 319.219 746.674 305.424C746.674 291.347 743.717 278.678 737.804 267.416C731.892 256.155 723.867 247.284 713.73 240.809C703.875 234.052 692.895 230.674 680.788 230.674Z" fill="#FAFAFA"/>
<path fill-rule="evenodd" clip-rule="evenodd" d="M1309.39 190.976C1326.56 190.976 1342.05 194.072 1355.85 200.266C1369.92 206.178 1381.89 214.486 1391.75 225.185C1401.88 235.602 1409.62 247.708 1414.97 261.504C1420.32 275.299 1423 289.939 1423 305.424C1423 320.909 1420.32 335.549 1414.97 349.344C1409.62 362.858 1401.88 374.965 1391.75 385.663C1381.89 396.362 1369.92 404.809 1355.85 411.003C1342.05 416.915 1326.56 419.872 1309.39 419.872C1291.93 419.872 1276.3 416.915 1262.5 411.003C1248.71 404.809 1236.74 396.362 1226.61 385.663C1216.75 374.965 1209.15 362.858 1203.8 349.344C1198.45 335.549 1195.77 320.909 1195.77 305.424C1195.77 289.939 1198.45 275.299 1203.8 261.504C1209.15 247.708 1216.75 235.602 1226.61 225.185C1236.74 214.486 1248.71 206.178 1262.5 200.266C1276.58 194.072 1292.21 190.976 1309.39 190.976ZM1309.39 230.674C1297 230.674 1285.87 234.052 1276.02 240.809C1266.17 247.566 1258.28 256.576 1252.37 267.837C1246.46 278.817 1243.5 291.487 1243.5 305.845C1243.5 319.922 1246.46 332.593 1252.37 343.855C1258.28 355.116 1266.17 363.985 1276.02 370.46C1285.87 376.936 1297 380.174 1309.39 380.174C1321.49 380.174 1332.48 376.936 1342.33 370.46C1352.47 363.703 1360.49 354.693 1366.4 343.432C1372.32 331.888 1375.27 319.219 1375.27 305.424C1375.27 291.347 1372.32 278.678 1366.4 267.416C1360.49 256.155 1352.47 247.284 1342.33 240.809C1332.48 234.052 1321.49 230.674 1309.39 230.674Z" fill="#FAFAFA"/>
<path d="M526.764 103.135C535.774 103.135 544.643 104.402 553.372 106.936C562.1 109.188 570.407 112.426 578.29 116.649L568.155 151.279C563.931 148.464 558.861 146.351 552.948 144.943C547.318 143.254 541.828 142.41 536.478 142.41C525.779 142.41 517.472 146.492 511.559 154.657C505.647 162.822 502.69 174.646 502.689 190.131V200.266H559.285V236.164H502.689V415.648H456.23V236.164H426.665V200.266H456.23V191.399C456.23 173.381 459.045 157.754 464.676 144.522C470.589 131.29 478.756 121.152 489.174 114.114C499.874 106.794 512.404 103.135 526.764 103.135Z" fill="#FAFAFA"/>
<path d="M1098.73 190.976C1111.69 190.976 1122.53 193.37 1131.25 198.156C1139.98 202.942 1146.74 209.558 1151.53 218.004C1156.31 226.169 1159.69 235.742 1161.66 246.722C1163.92 257.42 1165.04 268.822 1165.04 280.928V415.648H1118.58V291.91C1118.58 271.357 1115.21 256.294 1108.45 246.722C1101.69 237.149 1091.84 232.363 1078.88 232.363C1065.93 232.363 1053.82 237.291 1042.56 247.145C1031.58 256.717 1023.84 269.245 1019.33 284.729V415.648H972.872V291.91C972.872 271.357 969.494 256.294 962.736 246.722C955.978 237.149 946.264 232.363 933.593 232.363C920.641 232.363 908.533 237.149 897.271 246.722C886.29 256.294 878.406 268.823 873.62 284.308V415.648H827.16V194.776H869.395V239.12C878.124 223.635 889.527 211.81 903.605 203.646C917.965 195.199 934.297 190.976 952.598 190.976C970.9 190.976 985.26 195.762 995.678 205.334C1006.38 214.907 1013 226.873 1015.53 241.232C1025.1 224.903 1036.79 212.515 1050.58 204.069C1064.66 195.341 1080.71 190.976 1098.73 190.976Z" fill="#FAFAFA"/>
<path d="M237.439 6.42051C259.774 -7.53715 326.925 -2.60325 348.019 60.5277C354.203 100.384 342.456 165.359 257.33 155.629C233.099 146.263 180.201 127.386 162.296 190.511C154.049 215.539 177.546 257.183 238.197 239.793C257.78 234.178 257.248 234.172 260.747 233.648C276.536 231.282 297.649 225.26 321.311 242.443C331.907 248.64 341.151 257.412 348.025 268.536C371.02 305.751 358.813 355.199 320.76 378.982C286.665 400.291 243.393 393.762 218.219 365.407C205.775 352.918 197.615 335.85 198.045 314.571C197.029 294.449 183.623 258.93 131.31 271.486C105.258 277.74 63.1472 295.455 29.0318 262.728C22.6297 257.319 16.9315 250.79 12.2513 243.216C-3.52686 217.682 -3.6243 186.981 9.42492 163.194C13.6427 153.523 19.8946 144.364 28.832 136.797L237.439 6.42051Z" fill="#FAFAFA"/>
</svg>
