<svg width="302" height="309" viewBox="0 0 302 309" fill="none" xmlns="http://www.w3.org/2000/svg">
<path fill-rule="evenodd" clip-rule="evenodd" d="M77.0146 239.423C82.22 239.423 86.9134 240.362 91.0947 242.239C95.3614 244.031 98.988 246.549 101.975 249.791C105.047 252.949 107.393 256.618 109.015 260.799C110.636 264.98 111.447 269.417 111.447 274.111C111.447 278.804 110.636 283.242 109.015 287.423C107.393 291.519 105.047 295.188 101.975 298.431C98.988 301.674 95.3614 304.233 91.0947 306.111C86.9134 307.903 82.22 308.799 77.0146 308.799C71.7241 308.799 66.9879 307.903 62.8066 306.111C58.6255 304.233 54.9987 301.673 51.9268 298.431C48.9402 295.188 46.636 291.519 45.0146 287.423C43.3933 283.242 42.583 278.804 42.583 274.111C42.5831 269.417 43.3934 264.98 45.0146 260.799C46.636 256.618 48.9402 252.949 51.9268 249.791C54.9987 246.549 58.6255 244.031 62.8066 242.239C67.0732 240.362 71.8094 239.423 77.0146 239.423ZM77.0146 251.455C73.2603 251.455 69.8898 252.479 66.9033 254.527C63.9167 256.575 61.5273 259.306 59.7354 262.719C57.9434 266.047 57.0469 269.887 57.0469 274.239C57.0469 278.506 57.9434 282.346 59.7354 285.759C61.5273 289.172 63.9167 291.861 66.9033 293.823C69.8898 295.786 73.2603 296.767 77.0146 296.767C80.6839 296.767 84.0124 295.786 86.999 293.823C90.071 291.775 92.5029 289.044 94.2949 285.631C96.0869 282.132 96.9824 278.292 96.9824 274.111C96.9824 269.844 96.0868 266.004 94.2949 262.591C92.5029 259.178 90.071 256.489 86.999 254.527C84.0124 252.479 80.6839 251.455 77.0146 251.455Z" fill="#272727"/>
<path fill-rule="evenodd" clip-rule="evenodd" d="M267.52 239.423C272.725 239.423 277.418 240.362 281.6 242.239C285.866 244.031 289.493 246.549 292.479 249.791C295.551 252.949 297.898 256.618 299.52 260.799C301.141 264.98 301.952 269.417 301.952 274.111C301.952 278.804 301.141 283.242 299.52 287.423C297.898 291.519 295.551 295.188 292.479 298.431C289.493 301.673 285.866 304.233 281.6 306.111C277.418 307.903 272.725 308.799 267.52 308.799C262.229 308.799 257.493 307.903 253.312 306.111C249.13 304.233 245.504 301.673 242.432 298.431C239.445 295.188 237.141 291.519 235.52 287.423C233.898 283.242 233.088 278.804 233.088 274.111C233.088 269.417 233.898 264.98 235.52 260.799C237.141 256.618 239.445 252.949 242.432 249.791C245.504 246.549 249.13 244.031 253.312 242.239C257.578 240.362 262.314 239.423 267.52 239.423ZM267.52 251.455C263.765 251.455 260.395 252.479 257.408 254.527C254.422 256.575 252.032 259.306 250.24 262.719C248.448 266.047 247.552 269.887 247.552 274.239C247.552 278.506 248.448 282.346 250.24 285.759C252.032 289.172 254.422 291.861 257.408 293.823C260.395 295.786 263.765 296.767 267.52 296.767C271.189 296.767 274.517 295.786 277.504 293.823C280.576 291.775 283.008 289.044 284.8 285.631C286.592 282.132 287.488 278.292 287.488 274.111C287.488 269.844 286.592 266.004 284.8 262.591C283.008 259.178 280.576 256.489 277.504 254.527C274.517 252.479 271.189 251.455 267.52 251.455Z" fill="#272727"/>
<path d="M30.3359 212.799C33.0665 212.799 35.7542 213.183 38.3994 213.951C41.0447 214.634 43.5628 215.615 45.9521 216.895L42.8799 227.391C41.5999 226.538 40.0634 225.898 38.2715 225.471C36.5651 224.959 34.9014 224.703 33.2803 224.703C30.0376 224.703 27.5195 225.941 25.7275 228.415C23.9357 230.89 23.04 234.474 23.04 239.167V242.239H40.1914V253.119H23.04V307.519H8.95996V253.119H0V242.239H8.95996V239.551C8.95996 234.09 9.81289 229.354 11.5195 225.343C13.3115 221.332 15.787 218.261 18.9443 216.127C22.1869 213.909 25.984 212.799 30.3359 212.799Z" fill="#272727"/>
<path d="M203.679 239.423C207.604 239.423 210.89 240.148 213.535 241.599C216.18 243.05 218.228 245.056 219.679 247.615C221.129 250.09 222.154 252.991 222.751 256.319C223.434 259.561 223.774 263.018 223.774 266.687V307.519H209.695V270.015C209.695 263.786 208.671 259.22 206.623 256.319C204.575 253.417 201.588 251.967 197.663 251.967C193.738 251.967 190.069 253.461 186.655 256.447C183.327 259.349 180.981 263.146 179.615 267.839V307.519H165.535V270.015C165.535 263.786 164.511 259.22 162.463 256.319C160.415 253.417 157.471 251.967 153.631 251.967C149.706 251.967 146.036 253.417 142.623 256.319C139.295 259.22 136.906 263.018 135.455 267.711V307.519H121.375V240.575H134.175V254.015C136.82 249.322 140.276 245.738 144.543 243.263C148.895 240.703 153.844 239.423 159.391 239.423C164.937 239.423 169.29 240.873 172.447 243.775C175.69 246.676 177.695 250.304 178.463 254.656C181.364 249.706 184.906 245.951 189.087 243.391C193.354 240.746 198.217 239.423 203.679 239.423Z" fill="#272727"/>
<path d="M95.1006 138.074C110.616 128.377 131.011 133.166 140.653 148.772C150.295 164.377 145.533 184.889 130.018 194.587C114.502 204.285 94.1079 199.496 84.4658 183.891C74.8238 168.285 79.5851 147.772 95.1006 138.074Z" fill="#272727"/>
<path d="M169.647 2.69261C179.012 -3.16058 207.169 -1.09218 216.014 25.3811C218.607 42.0944 213.682 69.3411 177.988 65.261C167.828 61.3332 145.648 53.4177 138.141 79.8889C134.682 90.3842 144.535 107.846 169.966 100.554C178.178 98.1992 177.954 98.1976 179.422 97.9778C186.043 96.9856 194.897 94.4594 204.82 101.669C209.261 104.268 213.134 107.944 216.016 112.608C225.658 128.213 220.54 148.948 204.584 158.921C190.287 167.857 172.141 165.119 161.586 153.227C156.37 147.99 152.949 140.833 153.13 131.911C152.704 123.473 147.083 108.578 125.148 113.844C114.227 116.466 96.5747 123.892 82.2715 110.179C79.5834 107.909 77.1911 105.168 75.2266 101.989C68.611 91.2809 68.5704 78.4074 74.042 68.4328C75.8104 64.3778 78.4316 60.5376 82.1787 57.3645L169.647 2.69261Z" fill="#272727"/>
</svg>
