<svg width="512" height="512" viewBox="0 0 512 512" fill="none" xmlns="http://www.w3.org/2000/svg">
<path fill-rule="evenodd" clip-rule="evenodd" d="M345.39 303.625C345.983 314.847 338.862 326.179 324.027 334.745C295.498 351.216 249.242 351.216 220.713 334.745L94.2419 261.726C80.5477 253.82 73.4268 243.556 72.8792 233.197V301.073C73.4268 311.432 80.5477 321.696 94.2419 329.602L220.713 402.62C249.242 419.092 295.498 419.092 324.027 402.62C338.862 394.055 345.983 382.723 345.39 371.501V303.625Z" fill="black"/>
<path fill-rule="evenodd" clip-rule="evenodd" d="M72.8768 233.215C72.2834 221.993 79.4044 210.661 94.2395 202.096C122.769 185.624 169.024 185.624 197.554 202.096L202.898 205.181V273.057L197.554 269.972C169.024 253.5 122.769 253.5 94.2395 269.972C79.4044 278.537 72.2834 289.869 72.8768 301.091V233.215Z" fill="black"/>
<path fill-rule="evenodd" clip-rule="evenodd" d="M202.899 205.174C187.789 196.45 179.931 185.123 179.327 173.693V241.569C179.931 252.999 187.789 264.325 202.899 273.05V205.174Z" fill="black"/>
<path fill-rule="evenodd" clip-rule="evenodd" d="M179.328 173.675C178.673 161.293 186.53 148.788 202.9 139.337C234.381 121.161 285.422 121.161 316.902 139.337L432.686 206.184C447.796 214.908 455.654 226.234 456.258 237.664V305.54C455.654 294.11 447.796 282.784 432.686 274.06L316.902 207.213C285.422 189.037 234.381 189.037 202.9 207.213C186.53 216.664 178.673 229.169 179.328 241.551V173.675Z" fill="black"/>
<path fill-rule="evenodd" clip-rule="evenodd" d="M456.256 237.688C456.911 250.07 449.054 262.575 432.684 272.026C401.203 290.202 350.162 290.202 318.682 272.026V339.902C350.162 358.077 401.203 358.078 432.684 339.902C449.054 330.451 456.911 317.946 456.256 305.563V237.688Z" fill="black"/>
<path fill-rule="evenodd" clip-rule="evenodd" d="M318.682 272.035L324.025 275.12C337.719 283.027 344.84 293.291 345.388 303.649V371.525C344.84 361.167 337.719 350.903 324.025 342.996L318.682 339.911V272.035Z" fill="black"/>
<path d="M324.025 275.114C352.555 291.586 352.555 318.292 324.025 334.763C295.496 351.234 249.24 351.234 220.711 334.763L94.2401 261.745C65.7107 245.273 65.7107 218.568 94.2401 202.096C122.77 185.625 169.025 185.625 197.554 202.096L202.898 205.182C171.417 187.006 171.417 157.538 202.898 139.363C234.379 121.187 285.419 121.187 316.9 139.363L432.683 206.21C464.164 224.386 464.164 253.854 432.683 272.029C401.203 290.205 350.162 290.205 318.681 272.029L324.025 275.114Z" fill="#272727"/>
</svg>
