<svg width="512" height="512" viewBox="0 0 512 512" fill="none" xmlns="http://www.w3.org/2000/svg">
<g clip-path="url(#clip0_314_2603)">
<path fill-rule="evenodd" clip-rule="evenodd" d="M413.945 160.002C413.959 162.222 413.622 164.496 412.903 166.808L371.232 300.734C362.934 327.403 308.926 339.708 271.32 323.497L168.304 279.09L91.9858 248.734C74.1892 241.655 65.2809 230.833 64.6953 219.936V302.936C65.2809 313.833 74.1892 324.655 91.9858 331.734L168.304 362.09L271.32 406.497C308.926 422.708 362.934 410.403 371.232 383.734L412.903 249.808C413.622 247.496 413.959 245.222 413.945 243.002V160.002Z" fill="black"/>
<path fill-rule="evenodd" clip-rule="evenodd" d="M64.6955 219.936C63.9502 206.067 76.6864 192.075 101.738 185.518L324.695 127.165C367.316 116.009 413.786 134.47 413.945 160.002V243.002C413.786 217.47 367.316 199.009 324.695 210.165L101.738 268.518C76.6864 275.075 63.9502 289.067 64.6955 302.936V219.936Z" fill="black"/>
<path d="M324.695 127.162C371.023 115.036 421.896 137.901 412.903 166.806L371.232 300.732C362.934 327.401 308.926 339.706 271.32 323.495L168.304 279.088L91.9859 248.732C51.5389 232.643 57.0029 197.223 101.738 185.515L324.695 127.162Z" fill="#272727"/>
</g>
<defs>
<clipPath id="clip0_314_2603">
<rect width="512" height="512" fill="white"/>
</clipPath>
</defs>
</svg>
