<svg width="512" height="512" viewBox="0 0 512 512" fill="none" xmlns="http://www.w3.org/2000/svg">
<path fill-rule="evenodd" clip-rule="evenodd" d="M312.957 161.68C313.32 168.552 308.959 175.492 299.874 180.737L171.227 255.011C153.756 265.099 125.429 265.099 107.958 255.011L74.2146 235.53C65.8284 230.688 61.4675 224.402 61.1321 218.059V298.421C61.4675 304.765 65.8284 311.05 74.2146 315.892L107.958 335.374C125.429 345.461 153.756 345.461 171.227 335.374L299.874 261.1C308.959 255.854 313.32 248.914 312.957 242.042V161.68Z" fill="black"/>
<path fill-rule="evenodd" clip-rule="evenodd" d="M61.1325 218.04C60.7691 211.168 65.13 204.228 74.215 198.982L202.862 124.708C220.333 114.621 248.66 114.621 266.131 124.708L299.875 144.19C308.261 149.031 312.622 155.317 312.957 161.661V242.023C312.622 235.68 308.261 229.394 299.875 224.552L266.131 205.07C248.66 194.983 220.333 194.983 202.862 205.07L74.215 279.345C65.13 284.59 60.7691 291.53 61.1325 298.402V218.04Z" fill="black"/>
<path fill-rule="evenodd" clip-rule="evenodd" d="M426.433 261.561C427.341 278.741 416.439 296.091 393.726 309.204C350.048 334.421 279.232 334.422 235.553 309.204C214.588 297.099 203.686 281.385 202.847 265.526V345.889C203.686 361.747 214.588 377.462 235.553 389.566C279.232 414.784 350.048 414.784 393.726 389.566C416.439 376.453 427.341 359.103 426.433 341.923V261.561Z" fill="black"/>
<path fill-rule="evenodd" clip-rule="evenodd" d="M202.848 265.533C201.94 248.353 212.842 231.003 235.554 217.89C279.233 192.672 350.049 192.672 393.727 217.89C414.693 229.994 425.595 245.709 426.433 261.568V341.93C425.595 326.071 414.693 310.357 393.727 298.252C350.049 273.035 279.233 273.035 235.554 298.252C212.842 311.365 201.94 328.715 202.848 345.896V265.533Z" fill="black"/>
<path fill-rule="evenodd" clip-rule="evenodd" d="M202.862 124.694C220.334 114.607 248.66 114.607 266.132 124.694L299.875 144.176C317.346 154.263 317.346 170.617 299.875 180.704L171.228 254.978C153.757 265.065 125.43 265.065 107.959 254.978L74.2153 235.497C56.7441 225.41 56.7441 209.055 74.2153 198.968L202.862 124.694ZM235.551 217.841C279.23 192.624 350.046 192.624 393.724 217.841C437.402 243.059 437.402 283.945 393.724 309.162C350.046 334.38 279.23 334.38 235.551 309.162C191.873 283.945 191.873 243.059 235.551 217.841Z" fill="#272727"/>
</svg>
