<svg width="512" height="512" viewBox="0 0 512 512" fill="none" xmlns="http://www.w3.org/2000/svg">
<path fill-rule="evenodd" clip-rule="evenodd" d="M221.105 215.606L129.324 268.596C122.412 272.586 111.207 272.586 104.295 268.596C76.6465 252.634 62.2695 231.91 61.1636 210.996V287.739C62.2695 308.653 76.6465 329.376 104.295 345.339C111.207 349.329 122.412 349.329 129.324 345.339L221.105 292.349V215.606Z" fill="black"/>
<path fill-rule="evenodd" clip-rule="evenodd" d="M61.1595 211.022C59.9614 188.366 74.3384 165.485 104.291 148.192L109.18 145.369C166.78 112.114 260.171 112.114 317.771 145.369C321.089 147.285 322.814 149.771 322.947 152.281V229.023C322.814 226.514 321.089 224.027 317.771 222.112C260.171 188.856 166.78 188.856 109.18 222.112L104.291 224.935C74.3384 242.228 59.9614 265.108 61.1595 287.765V211.022Z" fill="black"/>
<path fill-rule="evenodd" clip-rule="evenodd" d="M322.95 152.283C323.094 155.002 321.369 157.747 317.775 159.822L225.994 212.812V289.555L317.775 236.565C321.369 234.49 323.094 231.744 322.95 229.026V152.283Z" fill="black"/>
<path fill-rule="evenodd" clip-rule="evenodd" d="M225.994 212.778C283.594 179.522 376.985 179.522 434.585 212.778C437.903 214.693 439.628 217.18 439.76 219.689V296.432C439.628 293.922 437.903 291.436 434.585 289.52C376.985 256.265 283.594 256.265 225.994 289.52V212.778Z" fill="black"/>
<path fill-rule="evenodd" clip-rule="evenodd" d="M439.763 219.689C439.907 222.408 438.182 225.153 434.588 227.229L246.136 336.031C239.225 340.021 228.019 340.021 221.107 336.031C193.458 320.068 179.081 299.345 177.976 278.431V355.173C179.081 376.087 193.458 396.811 221.107 412.774C228.019 416.764 239.225 416.764 246.136 412.774L434.588 303.971C438.182 301.896 439.907 299.151 439.763 296.432V219.689Z" fill="black"/>
<path fill-rule="evenodd" clip-rule="evenodd" d="M177.972 278.443C176.774 255.787 191.151 232.906 221.103 215.613V292.356C191.151 309.649 176.774 332.529 177.972 355.186V278.443Z" fill="black"/>
<path d="M221.106 215.641L129.325 268.631C122.413 272.621 111.208 272.621 104.296 268.631C46.6953 235.376 46.6953 181.456 104.296 148.201L109.185 145.378C166.786 112.122 260.176 112.122 317.777 145.378C324.688 149.369 324.688 155.838 317.777 159.829L225.995 212.818C283.596 179.563 376.986 179.563 434.587 212.818C441.498 216.809 441.498 223.278 434.587 227.269L246.135 336.072C239.223 340.062 228.018 340.062 221.106 336.072C163.506 302.816 163.506 248.897 221.106 215.641Z" fill="#272727"/>
</svg>
