<svg width="512" height="512" viewBox="0 0 512 512" fill="none" xmlns="http://www.w3.org/2000/svg">
<path fill-rule="evenodd" clip-rule="evenodd" d="M431.536 207.08C432.104 223.126 423.281 239.371 405.106 251.701C382.642 266.94 351.36 272.484 322.716 268.29V351.895C351.36 356.09 382.642 350.546 405.106 335.306C423.281 322.977 432.104 306.731 431.536 290.686V207.08Z" fill="black"/>
<path fill-rule="evenodd" clip-rule="evenodd" d="M322.716 268.291C323.952 272.177 324.614 276.135 324.703 280.103V363.709C324.614 359.741 323.952 355.783 322.716 351.897V268.291Z" fill="black"/>
<path fill-rule="evenodd" clip-rule="evenodd" d="M324.703 280.104C325.057 295.973 316.233 311.993 298.262 324.184C263.311 347.895 207.011 348.144 172.514 324.741C156.453 313.846 147.95 299.745 146.975 285.392V368.998C147.95 383.351 156.453 397.452 172.514 408.347C207.011 431.75 263.311 431.501 298.262 407.79C316.233 395.599 325.057 379.579 324.703 363.709V280.104Z" fill="black"/>
<path fill-rule="evenodd" clip-rule="evenodd" d="M146.976 285.417C145.921 269.868 153.701 254.023 170.28 241.639V325.245C153.701 337.629 145.921 353.474 146.976 369.022V285.417Z" fill="black"/>
<path fill-rule="evenodd" clip-rule="evenodd" d="M170.276 241.654C158.475 238.787 147.418 234.162 137.992 227.767C121.433 216.534 112.908 201.893 112.384 187.082V270.688C112.908 285.499 121.433 300.14 137.992 311.373C147.418 317.768 158.475 322.393 170.276 325.259V241.654Z" fill="black"/>
<path fill-rule="evenodd" clip-rule="evenodd" d="M112.388 187.066C111.82 171.02 120.644 154.775 138.818 142.445C173.769 118.735 230.068 118.485 264.566 141.888C274.03 148.308 280.86 155.844 285.082 163.886C320.211 143.294 373.001 144.083 405.928 166.42C422.487 177.653 431.013 192.294 431.537 207.105V290.711C431.013 275.9 422.487 261.259 405.928 250.026C373.001 227.689 320.211 226.9 285.082 247.492C280.86 239.45 274.03 231.914 264.566 225.494C230.068 202.091 173.769 202.341 138.818 226.051C120.644 238.381 111.82 254.626 112.388 270.671V187.066Z" fill="black"/>
<path d="M138.819 142.489C173.77 118.779 230.069 118.529 264.566 141.931C274.03 148.352 280.861 155.887 285.083 163.93C320.213 143.337 373.002 144.126 405.929 166.464C440.426 189.866 440.058 228.059 405.107 251.769C382.644 267.008 351.362 272.553 322.717 268.358C328.9 287.79 320.727 309.011 298.263 324.251C263.312 347.961 207.013 348.21 172.516 324.808C139.056 302.109 138.398 265.497 170.282 241.681C158.48 238.814 147.424 234.189 137.997 227.794C103.5 204.392 103.868 166.199 138.819 142.489Z" fill="#272727"/>
</svg>
