<svg width="512" height="512" viewBox="0 0 512 512" fill="none" xmlns="http://www.w3.org/2000/svg">
<path fill-rule="evenodd" clip-rule="evenodd" d="M166.768 168.287C166.236 177.601 172.619 187.007 185.918 194.116L198.884 201.047C224.459 214.718 265.923 214.718 291.498 201.047L362.81 162.926V227.15L291.498 265.271C265.923 278.943 224.459 278.943 198.884 265.271L185.918 258.34C172.619 251.231 166.236 241.825 166.768 232.511V168.287Z" fill="black"/>
<path fill-rule="evenodd" clip-rule="evenodd" d="M362.811 162.872L273.902 115.344C264.695 110.422 249.768 110.422 240.561 115.344L185.919 144.553C173.644 151.116 167.26 159.635 166.769 168.233V232.457C167.26 223.859 173.644 215.34 185.919 208.778L240.561 179.568C249.768 174.646 264.695 174.646 273.902 179.568L362.811 227.096V162.872Z" fill="black"/>
<path fill-rule="evenodd" clip-rule="evenodd" d="M272.353 224.7C271.821 234.015 278.204 243.42 291.503 250.53L304.469 257.461C330.044 271.132 371.508 271.132 397.083 257.461L451.724 228.251C456.144 225.889 458.442 222.822 458.619 219.727V283.951C458.442 287.046 456.144 290.113 451.724 292.475L397.083 321.685C371.508 335.356 330.044 335.357 304.469 321.685L291.503 314.754C278.204 307.645 271.821 298.239 272.353 288.925V224.7Z" fill="black"/>
<path fill-rule="evenodd" clip-rule="evenodd" d="M458.619 219.752C458.811 216.399 456.513 213.013 451.725 210.454L362.816 162.926L291.504 201.047C279.228 207.609 272.844 216.129 272.353 224.726V288.951C272.844 280.353 279.228 271.834 291.504 265.271L362.816 227.15L451.725 274.678C456.513 277.237 458.811 280.624 458.619 283.977V219.752Z" fill="black"/>
<path fill-rule="evenodd" clip-rule="evenodd" d="M31.0684 232.977C30.8769 229.624 33.1749 226.238 37.9625 223.678L92.6046 194.468C118.179 180.797 159.644 180.797 185.218 194.468L198.184 201.4C210.46 207.962 216.844 216.481 217.335 225.079V289.303C216.844 280.706 210.46 272.186 198.184 265.624L185.218 258.693C159.644 245.021 118.179 245.021 92.6046 258.693L37.9625 287.903C33.1749 290.462 30.8769 293.848 31.0684 297.201V232.977Z" fill="black"/>
<path fill-rule="evenodd" clip-rule="evenodd" d="M217.334 225.051C217.866 234.365 211.483 243.771 198.184 250.88L126.871 289.001L37.962 241.473C33.5427 239.111 31.2446 236.044 31.0679 232.949V297.173C31.2446 300.268 33.5427 303.335 37.962 305.698L126.871 353.226L198.184 315.104C211.483 307.995 217.866 298.589 217.334 289.275V225.051Z" fill="black"/>
<path fill-rule="evenodd" clip-rule="evenodd" d="M126.875 289.02L198.187 250.898C223.762 237.227 265.226 237.227 290.801 250.898L303.767 257.829C316.043 264.392 322.427 272.911 322.918 281.509V345.733C322.427 337.135 316.043 328.616 303.767 322.054L290.801 315.122C265.226 301.451 223.762 301.451 198.187 315.122L126.875 353.244V289.02Z" fill="black"/>
<path fill-rule="evenodd" clip-rule="evenodd" d="M322.917 281.52C323.449 290.834 317.066 300.239 303.767 307.349L249.125 336.559C239.918 341.48 224.991 341.48 215.784 336.558L126.875 289.03V353.255L215.784 400.783C224.991 405.705 239.918 405.705 249.125 400.783L303.767 371.573C317.066 364.464 323.449 355.058 322.917 345.744V281.52Z" fill="black"/>
<path d="M273.903 115.359C264.696 110.437 249.769 110.437 240.562 115.359L185.92 144.569C160.345 158.24 160.345 180.406 185.92 194.077L198.886 201.008C224.46 214.68 265.925 214.679 291.5 201.008L362.812 162.887L273.903 115.359Z" fill="#272727"/>
<path d="M362.812 162.887L291.5 201.008C265.925 214.679 265.925 236.845 291.5 250.517L304.466 257.448C330.04 271.119 371.505 271.119 397.079 257.448L451.721 228.238C460.928 223.316 460.928 215.336 451.721 210.415L362.812 162.887Z" fill="#272727"/>
<path d="M37.961 241.486C28.7542 236.564 28.7542 228.584 37.961 223.663L92.6031 194.453C118.178 180.781 159.642 180.781 185.217 194.453L198.183 201.384C223.757 215.055 223.757 237.221 198.183 250.892L126.87 289.014L37.961 241.486Z" fill="#272727"/>
<path d="M126.87 289.014L198.183 250.892C223.757 237.221 265.222 237.221 290.797 250.892L303.763 257.823C329.337 271.495 329.337 293.66 303.763 307.332L249.12 336.542C239.914 341.463 224.986 341.463 215.779 336.542L126.87 289.014Z" fill="#272727"/>
</svg>
