<svg width="512" height="512" viewBox="0 0 512 512" fill="none" xmlns="http://www.w3.org/2000/svg">
<path fill-rule="evenodd" clip-rule="evenodd" d="M450.892 224.799C451.526 236.791 443.916 248.902 428.062 258.055L383.327 283.883C370.711 291.167 350.256 291.166 337.64 283.883L272.918 246.515C266.862 243.019 263.713 238.48 263.471 233.899V306.437C263.713 311.017 266.862 315.556 272.918 319.053L337.64 356.42C350.256 363.704 370.711 363.704 383.327 356.42L428.062 330.593C443.916 321.439 451.526 309.329 450.892 297.336V224.799Z" fill="black"/>
<path fill-rule="evenodd" clip-rule="evenodd" d="M263.47 233.926C263.208 228.963 266.357 223.952 272.917 220.164L317.652 194.337C348.14 176.734 397.573 176.734 428.061 194.337C442.696 202.786 450.306 213.755 450.891 224.825V297.362C450.306 286.292 442.696 275.323 428.061 266.874C397.573 249.271 348.14 249.272 317.652 266.874L272.917 292.702C266.357 296.489 263.208 301.501 263.47 306.463V233.926Z" fill="black"/>
<path fill-rule="evenodd" clip-rule="evenodd" d="M262.375 233.322C262.637 238.285 259.488 243.296 252.928 247.084L208.193 272.911C177.704 290.514 128.272 290.514 97.7836 272.911C83.149 264.462 75.539 253.493 74.9536 242.423V314.96C75.539 326.03 83.149 336.999 97.7836 345.449C128.272 363.051 177.704 363.051 208.193 345.449L252.928 319.621C259.488 315.833 262.637 310.822 262.375 305.86V233.322Z" fill="black"/>
<path fill-rule="evenodd" clip-rule="evenodd" d="M74.9536 242.438C74.3194 230.445 81.9294 218.335 97.7836 209.181L142.518 183.354C155.134 176.07 175.589 176.07 188.205 183.354L252.928 220.721C258.984 224.217 262.133 228.756 262.375 233.337V305.874C262.133 301.294 258.984 296.755 252.928 293.259L188.205 255.891C175.589 248.607 155.134 248.607 142.518 255.891L97.7836 281.719C81.9294 290.872 74.3194 302.983 74.9536 314.975V242.438Z" fill="black"/>
<path d="M317.653 194.347C348.141 176.744 397.573 176.744 428.062 194.347C458.551 211.95 458.551 240.489 428.062 258.092L383.327 283.92C370.711 291.203 350.256 291.203 337.64 283.92L272.918 246.552C260.302 239.268 260.302 227.459 272.918 220.175L317.653 194.347Z" fill="#272727"/>
<path d="M142.52 183.357C155.136 176.073 175.591 176.073 188.207 183.357L252.93 220.724C265.546 228.008 265.546 239.818 252.93 247.101L208.195 272.929C177.706 290.532 128.274 290.532 97.7855 272.929C67.2968 255.326 67.2968 226.787 97.7855 209.184L142.52 183.357Z" fill="#272727"/>
</svg>
