<svg width="512" height="512" viewBox="0 0 512 512" fill="none" xmlns="http://www.w3.org/2000/svg">
<path fill-rule="evenodd" clip-rule="evenodd" d="M428.814 225.129C429.446 237.083 421.861 249.155 406.058 258.278C380.464 273.055 341.478 275.387 311.656 265.274V337.577C341.478 347.69 380.464 345.359 406.058 330.582C421.861 321.458 429.446 309.387 428.814 297.433V225.129Z" fill="black"/>
<path fill-rule="evenodd" clip-rule="evenodd" d="M311.656 265.258C317.671 271.423 320.968 278.233 321.547 285.104V357.408C320.968 350.536 317.671 343.726 311.656 337.562V265.258Z" fill="black"/>
<path fill-rule="evenodd" clip-rule="evenodd" d="M321.548 285.131C322.577 297.348 315.012 309.76 298.851 319.09C268.461 336.636 219.188 336.636 188.798 319.09L118.591 278.556C104.003 270.134 96.4177 259.2 95.8342 248.166V320.47C96.4177 331.504 104.003 342.438 118.591 350.86L188.798 391.394C219.188 408.94 268.461 408.94 298.851 391.394C315.012 382.064 322.577 369.652 321.548 357.435V285.131Z" fill="black"/>
<path fill-rule="evenodd" clip-rule="evenodd" d="M95.8341 248.152C95.202 236.199 102.787 224.127 118.591 215.003C141.88 201.557 176.258 198.415 204.73 205.578V277.881C176.258 270.719 141.88 273.861 118.591 287.307C102.787 296.431 95.202 308.502 95.8341 320.456V248.152Z" fill="black"/>
<path fill-rule="evenodd" clip-rule="evenodd" d="M204.731 205.587L161.286 180.503C146.698 172.081 139.113 161.148 138.529 150.113V222.417C139.113 233.451 146.698 244.385 161.286 252.807L204.731 277.891V205.587Z" fill="black"/>
<path fill-rule="evenodd" clip-rule="evenodd" d="M138.529 150.098C137.897 138.144 145.483 126.072 161.286 116.948C191.676 99.4028 240.949 99.4024 271.34 116.948L406.061 194.73C420.648 203.152 428.233 214.086 428.817 225.12V297.424C428.233 286.389 420.648 275.455 406.061 267.034L271.34 189.252C240.949 171.706 191.676 171.707 161.286 189.252C145.483 198.376 137.897 210.448 138.529 222.402V150.098Z" fill="black"/>
<path d="M161.286 116.958C191.677 99.4117 240.95 99.4117 271.34 116.958L406.062 194.739C436.452 212.285 436.452 240.733 406.062 258.279C380.467 273.056 341.481 275.387 311.66 265.274C328.369 282.399 324.104 304.501 298.854 319.08C268.463 336.626 219.19 336.626 188.8 319.08L118.593 278.546C88.2025 261 88.2025 232.552 118.593 215.006C141.882 201.56 176.261 198.418 204.732 205.581L161.286 180.497C130.896 162.951 130.896 134.504 161.286 116.958Z" fill="#272727"/>
</svg>
