<svg width="512" height="512" viewBox="0 0 512 512" fill="none" xmlns="http://www.w3.org/2000/svg">
<path fill-rule="evenodd" clip-rule="evenodd" d="M378.999 203.756C379.502 213.001 373.628 222.34 361.377 229.406V304.632C373.628 297.566 379.502 288.227 378.999 278.982V203.756Z" fill="black"/>
<path fill-rule="evenodd" clip-rule="evenodd" d="M361.377 229.412C385.016 215.869 423.278 215.884 446.886 229.454C458.23 235.975 464.129 244.44 464.583 252.984V328.21C464.129 319.666 458.23 311.2 446.886 304.68C423.278 291.109 385.016 291.095 361.377 304.637V229.412Z" fill="black"/>
<path fill-rule="evenodd" clip-rule="evenodd" d="M464.584 252.99C465.077 262.246 459.178 271.592 446.889 278.657L342.121 338.88C318.488 352.465 280.17 352.464 256.537 338.879C245.205 332.365 239.307 323.911 238.843 315.377V390.602C239.307 399.136 245.205 407.591 256.537 414.105C280.17 427.69 318.488 427.691 342.121 414.106L446.889 353.882C459.178 346.818 465.077 337.471 464.584 328.216V252.99Z" fill="black"/>
<path fill-rule="evenodd" clip-rule="evenodd" d="M238.841 315.4C238.338 306.155 244.211 296.816 256.462 289.75V364.976C244.211 372.042 238.338 381.38 238.841 390.626V315.4Z" fill="black"/>
<path fill-rule="evenodd" clip-rule="evenodd" d="M256.46 289.719C232.821 303.261 194.56 303.247 170.951 289.676C159.785 283.257 153.894 274.954 153.28 266.547V341.773C153.894 350.18 159.785 358.483 170.951 364.902C194.56 378.473 232.821 378.487 256.46 364.944V289.719Z" fill="black"/>
<path fill-rule="evenodd" clip-rule="evenodd" d="M153.282 266.539C152.617 257.431 158.144 248.202 169.863 241.115L170.953 240.473V315.698L169.863 316.341C158.144 323.427 152.617 332.657 153.282 341.764V266.539Z" fill="black"/>
<path fill-rule="evenodd" clip-rule="evenodd" d="M170.952 240.47C147.318 254.055 109 254.054 85.3672 240.469C74.0236 233.948 68.1249 225.483 67.6711 216.939V292.165C68.1249 300.708 74.0236 309.174 85.3672 315.695C109 329.28 147.318 329.281 170.952 315.696V240.47Z" fill="black"/>
<path fill-rule="evenodd" clip-rule="evenodd" d="M67.6734 216.961C67.1818 207.706 73.0805 198.359 85.3694 191.295L190.137 131.071C213.77 117.487 252.086 117.487 275.72 131.071C287.063 137.592 292.963 146.058 293.417 154.601V229.827C292.963 221.283 287.063 212.818 275.72 206.297C252.086 192.712 213.77 192.712 190.137 206.297L85.3694 266.521C73.0805 273.585 67.1818 282.931 67.6734 292.187V216.961Z" fill="black"/>
<path fill-rule="evenodd" clip-rule="evenodd" d="M293.417 154.604C293.909 163.859 288.01 173.206 275.721 180.27V255.496C288.01 248.431 293.909 239.085 293.417 229.829V154.604Z" fill="black"/>
<path fill-rule="evenodd" clip-rule="evenodd" d="M275.721 180.263L276.839 179.636C300.547 166.681 338.04 166.89 361.304 180.263C372.636 186.777 378.534 195.232 378.999 203.766V278.991C378.534 270.457 372.636 262.003 361.304 255.488C338.04 242.116 300.547 241.907 276.839 254.862L275.721 255.489V180.263Z" fill="black"/>
<path d="M276.841 179.647C300.55 166.692 338.042 166.901 361.307 180.274C384.915 193.844 384.939 215.838 361.38 229.427C385.019 215.884 423.28 215.898 446.889 229.469C470.522 243.054 470.524 265.08 446.891 278.666L342.123 338.889C318.49 352.474 280.172 352.473 256.539 338.888C232.931 325.317 232.906 303.323 256.465 289.735C232.826 303.277 194.565 303.264 170.956 289.693C147.693 276.32 147.329 254.768 169.866 241.14L170.956 240.497C147.323 254.082 109.005 254.081 85.372 240.496C61.7396 226.911 61.7396 204.886 85.372 191.301L190.14 131.077C213.773 117.492 252.089 117.492 275.722 131.077C299.355 144.662 299.357 166.688 275.724 180.274L276.841 179.647Z" fill="#272727"/>
</svg>
