<svg width="512" height="512" viewBox="0 0 512 512" fill="none" xmlns="http://www.w3.org/2000/svg">
<path fill-rule="evenodd" clip-rule="evenodd" d="M111.918 297.367C93.5375 288.078 83.9794 276.018 83.2441 263.848V343.596C83.9794 355.766 93.5375 367.826 111.918 377.115V297.367Z" fill="black"/>
<path fill-rule="evenodd" clip-rule="evenodd" d="M83.2432 263.863C82.4467 250.678 92.0048 237.364 111.917 227.3L281.673 141.51C319.965 122.158 382.052 122.158 420.346 141.51V141.51C438.727 150.8 448.285 162.859 449.02 175.03V254.778C448.285 242.608 438.727 230.548 420.346 221.259V221.259C382.052 201.906 319.965 201.906 281.673 221.259L111.917 307.048C92.0048 317.112 82.4467 330.426 83.2432 343.611V263.863Z" fill="black"/>
<path fill-rule="evenodd" clip-rule="evenodd" d="M449.018 175.023C449.815 188.208 440.257 201.523 420.344 211.586L250.589 297.376C212.296 316.728 150.21 316.728 111.916 297.376V377.124C150.21 396.476 212.296 396.476 250.589 377.124L420.344 291.334C440.257 281.271 449.815 267.956 449.018 254.772V175.023Z" fill="black"/>
<rect width="345.578" height="155.376" rx="77.688" transform="matrix(0.892501 -0.451046 0.892501 0.451046 42.5811 262.35)" fill="#272727"/>
</svg>
