<svg width="512" height="512" viewBox="0 0 512 512" fill="none" xmlns="http://www.w3.org/2000/svg">
<path fill-rule="evenodd" clip-rule="evenodd" d="M461.055 208.125C461.214 211.134 459.305 214.172 455.327 216.469C398.808 249.1 307.171 249.1 250.652 216.469V287.877C307.171 320.509 398.808 320.509 455.327 287.878C459.305 285.581 461.214 282.543 461.055 279.534V208.125Z" fill="black"/>
<path fill-rule="evenodd" clip-rule="evenodd" d="M250.652 216.443L252.938 217.763C279.461 233.076 293.253 252.957 294.314 273.02V344.428C293.253 324.366 279.461 304.485 252.938 289.172L250.652 287.852V216.443Z" fill="black"/>
<path fill-rule="evenodd" clip-rule="evenodd" d="M294.317 273.067C295.466 294.802 281.674 316.751 252.941 333.341C242.994 339.083 226.867 339.083 216.922 333.341L39.305 230.794C34.5308 228.038 32.0481 224.459 31.8572 220.848V292.256C32.0481 295.868 34.5308 299.446 39.305 302.203L216.922 404.75C226.867 410.492 242.994 410.492 252.941 404.75C281.674 388.16 295.466 366.211 294.317 344.476V273.067Z" fill="black"/>
<path fill-rule="evenodd" clip-rule="evenodd" d="M31.8535 220.821C31.6466 216.909 34.1292 212.958 39.3013 209.972C94.5586 178.069 184.148 178.069 239.405 209.972L241.691 211.292V282.7L239.405 281.381C184.148 249.478 94.5586 249.478 39.3013 281.381C34.1292 284.367 31.6466 288.318 31.8535 292.23V220.821Z" fill="black"/>
<path fill-rule="evenodd" clip-rule="evenodd" d="M241.691 211.333C214.562 195.67 200.454 175.336 199.369 154.814V226.223C200.454 246.745 214.562 267.079 241.691 282.742V211.333Z" fill="black"/>
<path fill-rule="evenodd" clip-rule="evenodd" d="M199.37 154.783C198.194 132.552 212.301 110.101 241.691 93.1328C249.341 88.7163 261.743 88.7162 269.392 93.1324L455.327 200.482C458.999 202.602 460.908 205.354 461.055 208.131V279.54C460.908 276.763 458.999 274.011 455.327 271.891L269.392 164.541C261.743 160.125 249.341 160.125 241.691 164.542C212.301 181.51 198.194 203.96 199.37 226.192V154.783Z" fill="black"/>
<path d="M241.69 93.1449C249.339 88.7287 261.741 88.7287 269.39 93.1449L455.325 200.495C462.974 204.911 462.974 212.071 455.325 216.487C398.806 249.119 307.169 249.119 250.65 216.487L252.936 217.807C308.192 249.71 308.192 301.434 252.936 333.337C242.989 339.08 226.862 339.08 216.916 333.337L39.3 230.791C29.3537 225.048 29.3537 215.737 39.3 209.995C94.5573 178.092 184.147 178.092 239.404 209.995L241.69 211.314C185.17 178.683 185.17 125.776 241.69 93.1449Z" fill="#272727"/>
</svg>
