<svg width="512" height="512" viewBox="0 0 512 512" fill="none" xmlns="http://www.w3.org/2000/svg">
<g clip-path="url(#clip0_314_2440)">
<path fill-rule="evenodd" clip-rule="evenodd" d="M469.039 219.302C470.269 242.549 455.517 266.025 424.785 283.768L394.821 301.068C335.72 335.19 239.897 335.19 180.796 301.068L54.5211 228.163C44.3084 222.267 38.9978 214.612 38.5894 206.887V288.441C38.9978 296.166 44.3084 303.821 54.5211 309.718L180.796 382.622C239.897 416.744 335.72 416.744 394.821 382.622L424.785 365.323C455.517 347.579 470.269 324.103 469.039 300.856V219.302Z" fill="black"/>
<path fill-rule="evenodd" clip-rule="evenodd" d="M38.5914 206.823C38.1489 198.454 43.4596 190.003 54.5232 183.615L221.463 87.2325C242.739 74.9485 277.235 74.9485 298.512 87.2325L424.787 160.137C453.155 176.516 467.907 197.779 469.041 219.238V300.792C467.907 279.334 453.155 258.07 424.787 241.692L298.512 168.787C277.235 156.503 242.739 156.503 221.463 168.787L54.5232 265.17C43.4596 271.557 38.1489 280.009 38.5914 288.378V206.823Z" fill="black"/>
<path d="M221.464 87.2421C242.741 74.9582 277.237 74.9581 298.513 87.2421L424.788 160.147C483.889 194.269 483.889 249.592 424.788 283.714L394.825 301.014C335.723 335.136 239.901 335.136 180.8 301.014L54.5247 228.109C33.2482 215.825 33.2482 195.909 54.5247 183.625L221.464 87.2421Z" fill="#272727"/>
</g>
<defs>
<clipPath id="clip0_314_2440">
<rect width="512" height="512" fill="white"/>
</clipPath>
</defs>
</svg>
