<svg width="512" height="512" viewBox="0 0 512 512" fill="none" xmlns="http://www.w3.org/2000/svg">
<g clip-path="url(#clip0_314_2623)">
<path fill-rule="evenodd" clip-rule="evenodd" d="M414.592 198.477C415.297 211.807 406.838 225.269 389.215 235.443L376.52 242.773V323.403L389.215 316.073C406.838 305.899 415.297 292.437 414.592 279.107V198.477Z" fill="black"/>
<path fill-rule="evenodd" clip-rule="evenodd" d="M376.52 242.762L389.215 250.092C405.483 259.484 413.942 271.676 414.592 283.981V364.612C413.942 352.307 405.483 340.114 389.215 330.722L376.52 323.392V242.762Z" fill="black"/>
<path fill-rule="evenodd" clip-rule="evenodd" d="M414.592 283.971C415.297 297.301 406.838 310.763 389.215 320.938C355.324 340.504 300.377 340.504 266.487 320.938L253.791 313.608L238.979 322.159C205.089 341.726 150.142 341.726 116.252 322.159C99.9845 312.767 91.5255 300.575 90.8748 288.27V368.9C91.5255 381.205 99.9845 393.398 116.252 402.79C150.142 422.356 205.089 422.356 238.979 402.79L253.791 394.238L266.487 401.568C300.377 421.134 355.324 421.134 389.215 401.568C406.838 391.393 415.297 377.931 414.592 364.601V283.971Z" fill="black"/>
<path fill-rule="evenodd" clip-rule="evenodd" d="M90.8739 288.28C90.169 274.95 98.628 261.488 116.251 251.313L131.063 242.762V323.392L116.251 331.944C98.628 342.118 90.169 355.58 90.8739 368.91V288.28Z" fill="black"/>
<path fill-rule="evenodd" clip-rule="evenodd" d="M131.064 242.748L116.252 234.197C99.9845 224.805 91.5255 212.612 90.8748 200.307V280.937C91.5255 293.242 99.9845 305.435 116.252 314.827L131.064 323.378V242.748Z" fill="black"/>
<path fill-rule="evenodd" clip-rule="evenodd" d="M90.8742 200.302C90.1692 186.972 98.6283 173.51 116.251 163.335C150.142 143.769 205.088 143.769 238.979 163.335L253.791 171.887L266.487 164.557C300.376 144.991 355.324 144.99 389.214 164.557C405.482 173.949 413.94 186.142 414.591 198.447V279.077C413.94 266.772 405.482 254.579 389.214 245.187C355.324 225.62 300.376 225.621 266.487 245.187L253.791 252.517L238.979 243.965C205.088 224.399 150.142 224.399 116.251 243.965C98.6283 254.14 90.1692 267.602 90.8742 280.932V200.302Z" fill="black"/>
<path d="M116.249 163.355C150.14 143.789 205.087 143.789 238.977 163.355L253.789 171.907L266.485 164.577C300.375 145.01 355.322 145.01 389.212 164.577C423.103 184.143 423.103 215.867 389.212 235.434L376.516 242.764L389.212 250.094C423.103 269.66 423.103 301.384 389.212 320.95C355.322 340.517 300.375 340.517 266.485 320.95L253.789 313.62L238.977 322.172C205.087 341.739 150.14 341.739 116.249 322.172C82.3591 302.606 82.3591 270.882 116.249 251.315L131.061 242.764L116.249 234.212C82.3591 214.645 82.3591 182.922 116.249 163.355Z" fill="#272727"/>
</g>
<defs>
<clipPath id="clip0_314_2623">
<rect width="512" height="512" fill="white"/>
</clipPath>
</defs>
</svg>
