<svg width="512" height="512" viewBox="0 0 512 512" fill="none" xmlns="http://www.w3.org/2000/svg">
<path fill-rule="evenodd" clip-rule="evenodd" d="M260.061 246.179C263.056 247.554 265.656 249.886 267.676 253.284L310.264 324.948C321.821 344.393 305.392 384.874 279.993 399.538L194.815 448.716C185.671 453.995 177.689 454.586 171.758 451.65L117.436 420.287C123.367 423.223 131.348 422.632 140.492 417.353L225.67 368.175C251.07 353.511 267.498 313.029 255.942 293.585L213.353 221.921C211.334 218.523 208.734 216.191 205.739 214.816L260.061 246.179Z" fill="black"/>
<path fill-rule="evenodd" clip-rule="evenodd" d="M171.757 451.677C161.212 446.457 157.146 430.092 164.542 409.107L207.131 288.266C217.733 258.184 244.338 238.99 260.06 246.206L205.738 214.843C190.015 207.627 163.411 226.821 152.809 256.903L110.22 377.744C102.823 398.729 106.89 415.094 117.435 420.314L171.757 451.677Z" fill="black"/>
<path fill-rule="evenodd" clip-rule="evenodd" d="M407.296 96.9822C417.841 102.201 421.908 118.567 414.512 139.552L371.923 260.392C361.321 290.474 334.717 309.668 318.994 302.452L264.671 271.089C280.394 278.305 306.999 259.111 317.601 229.029L360.189 108.189C367.585 87.2036 363.518 70.8382 352.974 65.6191L407.296 96.9822Z" fill="black"/>
<path fill-rule="evenodd" clip-rule="evenodd" d="M318.994 302.461C315.999 301.086 313.399 298.754 311.38 295.356L268.791 223.693C257.234 204.247 273.663 163.767 299.063 149.103L384.24 99.9254C393.384 94.6461 401.365 94.0551 407.297 96.9909L352.974 65.6278C347.043 62.692 339.061 63.283 329.917 68.5623L244.74 117.739C219.34 132.404 202.912 172.884 214.468 192.33L257.057 263.993C259.077 267.391 261.677 269.723 264.672 271.098L318.994 302.461Z" fill="black"/>
<path d="M207.132 288.269C219.753 252.458 255.054 232.077 267.676 253.314L310.265 324.977C321.821 344.423 305.393 384.903 279.993 399.568L194.815 448.745C169.415 463.41 152.987 441.899 164.543 409.11L207.132 288.269Z" fill="#272727"/>
<path d="M384.241 99.9374C409.641 85.2728 426.069 106.783 414.513 139.573L371.924 260.413C359.302 296.225 324.002 316.606 311.38 295.368L268.791 223.705C257.235 204.26 273.663 163.779 299.063 149.115L384.241 99.9374Z" fill="#272727"/>
</svg>
