<svg width="512" height="512" viewBox="0 0 512 512" fill="none" xmlns="http://www.w3.org/2000/svg">
<path fill-rule="evenodd" clip-rule="evenodd" d="M309.622 198.076C338.85 181.201 386.238 181.201 415.466 198.076C429.496 206.176 436.791 216.691 437.352 227.304V296.842C436.791 286.23 429.496 275.714 415.466 267.614C386.238 250.739 338.85 250.74 309.622 267.614V198.076Z" fill="black"/>
<path fill-rule="evenodd" clip-rule="evenodd" d="M437.35 227.334C437.958 238.831 430.663 250.441 415.464 259.216L285.896 334.022C256.668 350.897 209.28 350.896 180.052 334.022C166.022 325.922 158.727 315.406 158.166 304.794V374.332C158.727 384.944 166.022 395.46 180.052 403.56C209.28 420.434 256.668 420.435 285.896 403.56L415.464 328.754C430.663 319.979 437.958 308.369 437.35 296.872V227.334Z" fill="black"/>
<path fill-rule="evenodd" clip-rule="evenodd" d="M158.17 304.783C157.562 293.287 164.857 281.677 180.056 272.902L227.503 245.508V315.046L180.056 342.44C164.857 351.215 157.562 362.825 158.17 374.321V304.783Z" fill="black"/>
<path fill-rule="evenodd" clip-rule="evenodd" d="M227.504 245.501C198.275 262.376 150.887 262.376 121.659 245.501C107.63 237.401 100.334 226.886 99.7732 216.273V285.812C100.334 296.424 107.63 306.939 121.659 315.039C150.887 331.914 198.275 331.914 227.504 315.039V245.501Z" fill="black"/>
<path fill-rule="evenodd" clip-rule="evenodd" d="M99.7716 216.284C99.1637 204.787 106.459 193.177 121.658 184.402L203.778 136.99C233.006 120.115 280.395 120.115 309.623 136.99C323.652 145.09 330.948 155.606 331.509 166.218V235.756C330.948 225.144 323.652 214.628 309.623 206.528C280.395 189.653 233.006 189.654 203.778 206.528L121.658 253.941C106.459 262.716 99.1637 274.326 99.7716 285.822V216.284Z" fill="black"/>
<path fill-rule="evenodd" clip-rule="evenodd" d="M331.508 166.209C332.116 177.706 324.82 189.316 309.622 198.09V267.629C324.82 258.854 332.116 247.244 331.508 235.747V166.209Z" fill="black"/>
<path d="M309.625 198.094C338.853 181.219 386.242 181.219 415.47 198.094C444.698 214.969 444.698 242.329 415.47 259.203L285.902 334.01C256.673 350.885 209.285 350.885 180.057 334.01C150.829 317.135 150.829 289.775 180.057 272.9L227.505 245.507C198.277 262.381 150.888 262.381 121.66 245.507C92.4321 228.632 92.4321 201.272 121.66 184.397L203.781 136.985C233.009 120.11 280.397 120.11 309.625 136.985C338.853 153.86 338.853 181.219 309.625 198.094Z" fill="#272727"/>
</svg>
